<mxfile host="65bd71144e">
    <diagram id="28HpDJ1M-9KuPtB51g_f" name="Page-1">
        <mxGraphModel dx="1133" dy="825" grid="1" gridSize="10" guides="1" tooltips="1" connect="1" arrows="1" fold="1" page="1" pageScale="1" pageWidth="850" pageHeight="1100" math="0" shadow="0">
            <root>
                <mxCell id="0"/>
                <mxCell id="1" parent="0"/>
                <mxCell id="11" style="edgeStyle=none;html=1;exitX=1;exitY=0.5;exitDx=0;exitDy=0;entryX=0;entryY=0.5;entryDx=0;entryDy=0;fontSize=14;" edge="1" parent="1" source="3" target="10">
                    <mxGeometry relative="1" as="geometry"/>
                </mxCell>
                <mxCell id="14" value="Data Scrape" style="edgeLabel;html=1;align=center;verticalAlign=middle;resizable=0;points=[];fontSize=14;" vertex="1" connectable="0" parent="11">
                    <mxGeometry x="-0.472" y="1" relative="1" as="geometry">
                        <mxPoint x="32" y="1" as="offset"/>
                    </mxGeometry>
                </mxCell>
                <mxCell id="12" style="edgeStyle=orthogonalEdgeStyle;html=1;exitX=0;exitY=0;exitDx=0;exitDy=0;entryX=0.5;entryY=0;entryDx=0;entryDy=0;fontSize=14;" edge="1" parent="1" source="3" target="5">
                    <mxGeometry relative="1" as="geometry"/>
                </mxCell>
                <mxCell id="17" value="Response" style="edgeLabel;html=1;align=center;verticalAlign=middle;resizable=0;points=[];fontSize=14;" vertex="1" connectable="0" parent="12">
                    <mxGeometry x="0.0021" relative="1" as="geometry">
                        <mxPoint x="26" as="offset"/>
                    </mxGeometry>
                </mxCell>
                <mxCell id="3" value="Pakistan Stock Exchange&amp;nbsp;&lt;br style=&quot;font-size: 14px;&quot;&gt;Simulator" style="ellipse;whiteSpace=wrap;html=1;aspect=fixed;fillColor=none;fontSize=14;" vertex="1" parent="1">
                    <mxGeometry x="321" y="280" width="200" height="200" as="geometry"/>
                </mxCell>
                <mxCell id="8" style="edgeStyle=none;html=1;entryX=0;entryY=0.5;entryDx=0;entryDy=0;fontSize=14;" edge="1" parent="1" source="5" target="3">
                    <mxGeometry relative="1" as="geometry"/>
                </mxCell>
                <mxCell id="16" value="Interects" style="edgeLabel;html=1;align=center;verticalAlign=middle;resizable=0;points=[];fontSize=14;" vertex="1" connectable="0" parent="8">
                    <mxGeometry x="-0.2444" relative="1" as="geometry">
                        <mxPoint x="9" as="offset"/>
                    </mxGeometry>
                </mxCell>
                <mxCell id="5" value="User" style="rounded=0;whiteSpace=wrap;html=1;fillColor=none;fontSize=14;" vertex="1" parent="1">
                    <mxGeometry x="8" y="350" width="150" height="60" as="geometry"/>
                </mxCell>
                <mxCell id="13" style="edgeStyle=orthogonalEdgeStyle;html=1;exitX=0.5;exitY=1;exitDx=0;exitDy=0;entryX=1;entryY=1;entryDx=0;entryDy=0;fontSize=14;" edge="1" parent="1" source="10" target="3">
                    <mxGeometry relative="1" as="geometry"/>
                </mxCell>
                <mxCell id="15" value="Scrapped Data" style="edgeLabel;html=1;align=center;verticalAlign=middle;resizable=0;points=[];fontSize=14;" vertex="1" connectable="0" parent="13">
                    <mxGeometry x="0.0571" relative="1" as="geometry">
                        <mxPoint x="-13" as="offset"/>
                    </mxGeometry>
                </mxCell>
                <mxCell id="10" value="Data Portal&amp;nbsp;&lt;br style=&quot;font-size: 14px;&quot;&gt;Pakistan Stock Exchange" style="rounded=0;whiteSpace=wrap;html=1;fillColor=none;fontSize=14;" vertex="1" parent="1">
                    <mxGeometry x="680" y="350" width="150" height="60" as="geometry"/>
                </mxCell>
            </root>
        </mxGraphModel>
    </diagram>
</mxfile>